<svg width="77" height="55" viewBox="0 0 77 55" fill="none" xmlns="http://www.w3.org/2000/svg">
<path d="M66.3856 18.3772C67.0936 16.7517 67.4974 14.9548 67.4974 13.064C67.4974 5.88203 61.8334 0.0601807 54.842 0.0601807C48.2432 0.0601807 42.8282 5.25727 42.2474 11.8919C41.0139 11.8255 39.7639 11.7868 38.4972 11.7868C37.2306 11.7868 35.9805 11.8255 34.7471 11.8919C34.1718 5.25727 28.7568 0.0601807 22.1525 0.0601807C15.1666 0.0601807 9.50262 5.88203 9.50262 13.064C9.50262 14.9604 9.9064 16.7572 10.6144 18.3772C4.05438 22.1699 0 27.2841 0 32.9235C0 44.6004 17.2353 54.0602 38.4972 54.0602C59.7592 54.0602 76.9945 44.5948 76.9945 32.9235C77 27.2841 72.9456 22.1699 66.3856 18.3772Z" fill="#00FF85"/>
</svg>
