<svg width="967" height="126" viewBox="0 0 967 126" fill="none" xmlns="http://www.w3.org/2000/svg">
<path d="M0 76.5398H41.3965V22.3419H38.7099V73.8673H0V0H80.1064V99.2143H38.7099V101.887H80.1064V125.06H0V76.5398Z" fill="#00FF85"/>
<path d="M86.9746 23.1734H81.9519V0H128.71V125.06H86.9746V23.1734Z" fill="#00FF85"/>
<path d="M137.844 6.67526C142.259 2.22113 148.368 0 156.195 0H211.328V75.7084H172.618V22.3419H171.45C171.006 22.3419 170.644 22.6508 170.363 23.2565C170.083 23.8742 169.943 24.5631 169.943 25.3351V102.54H171.111C171.555 102.54 171.917 102.267 172.197 101.709C172.478 101.15 172.618 100.485 172.618 99.7132V78.369H211.328V100.545C211.328 107.992 209.12 113.943 204.705 118.385C200.289 122.827 194.122 125.06 186.191 125.06H131.221V24.5156C131.221 17.0682 133.429 11.1175 137.844 6.67526Z" fill="#00FF85"/>
<path d="M227.167 6.67526C231.582 2.22113 237.691 0 245.517 0H300.65V23.1734H261.94C261.041 23.1734 260.375 23.4822 259.931 24.088C259.487 24.7056 259.265 25.3945 259.265 26.1666V102.54H261.952V48.5204V25.8459H300.662V125.06H220.555V24.5156C220.544 17.0682 222.751 11.1175 227.167 6.67526Z" fill="#00FF85"/>
<path d="M303.337 0H383.443V68.7006C383.443 72.3708 382.742 75.7559 381.352 78.8679C379.951 81.9798 377.976 84.5929 375.407 86.7071H383.618V125.06H344.908V100.046H342.058V125.06H303.348V0H303.337ZM344.394 76.7893C344.616 76.2904 344.733 75.7678 344.733 75.2095V22.3538H342.047V77.5494H343.553C343.892 77.5376 344.172 77.2881 344.394 76.7893Z" fill="#00FF85"/>
<path d="M386.293 0H465.57V73.8673H427.69V22.3419H425.003V76.5398H465.559V99.2143H425.003V101.887H465.559V125.06H386.281V0H386.293Z" fill="#00FF85"/>
<path d="M468.245 0H547.522V73.8673H509.642V22.3419H506.955V76.5398H547.51V99.2143H506.955V101.887H547.51V125.06H468.233V0H468.245Z" fill="#00FF85"/>
<path d="M550.197 0H630.303V125.06H591.593V22.3419H588.907V125.06H550.197V0Z" fill="#00FF85"/>
<path d="M639.858 0H719.123V91.5414H681.243V22.3419H678.556V94.2138H719.112V116.556H678.556V125.06H639.846V0H639.858Z" fill="#00FF85"/>
<path d="M721.635 0H801.741V68.7006C801.741 72.3708 801.04 75.7559 799.65 78.8679C798.249 81.9798 796.275 84.5929 793.705 86.7071H801.917V125.06H763.207V100.046H760.357V125.06H721.635V0ZM762.693 76.7893C762.915 76.2904 763.031 75.7678 763.031 75.2095V22.3538H760.345V77.5494H761.852C762.19 77.5376 762.471 77.2881 762.693 76.7893Z" fill="#00FF85"/>
<path d="M811.051 6.67526C815.454 2.22113 821.575 0 829.401 0H884.534V100.545C884.534 107.992 882.326 113.943 877.911 118.385C873.496 122.827 867.328 125.06 859.397 125.06H804.428V24.5156C804.428 17.0682 806.635 11.1175 811.051 6.67526ZM845.404 101.721C845.684 101.162 845.824 100.497 845.824 99.7251V22.3419H844.656C844.212 22.3419 843.85 22.6508 843.57 23.2565C843.29 23.8742 843.149 24.5631 843.149 25.3351V102.54H844.317C844.761 102.552 845.123 102.267 845.404 101.721Z" fill="#00FF85"/>
<path d="M893.505 6.67526C897.909 2.22113 904.029 0 911.855 0H966.988V23.1734H928.279C927.379 23.1734 926.713 23.4822 926.269 24.088C925.826 24.7056 925.604 25.3945 925.604 26.1666V102.54H928.29V48.5204V25.8459H967V125.06H886.894V24.5156C886.882 17.0682 889.09 11.1175 893.505 6.67526Z" fill="#00FF85"/>
</svg>
